HIERARCHY
ROOT Hips
{
	OFFSET 0.000000 88.474243 0.000000
	CHANNELS 6 Xposition Yposition Zposition Zrotation Yrotation Xrotation 
	JOINT Hips_Spine
	{
		OFFSET 0.000000 0.000000 0.000000
		CHANNELS 3 Zrotation Yrotation Xrotation
		JOINT Spine
		{
			OFFSET 0.005100 8.711998 -0.691000
			CHANNELS 3 Zrotation Yrotation Xrotation
			JOINT Spine1
			{
				OFFSET -0.009200 8.660301 -1.275000
				CHANNELS 3 Zrotation Yrotation Xrotation
				JOINT Spine2
				{
					OFFSET 0.006300 9.852501 -1.857000
					CHANNELS 3 Zrotation Yrotation Xrotation
					JOINT Spine2_Neck
					{
						OFFSET 0.000000 0.000000 0.000000
						CHANNELS 3 Zrotation Yrotation Xrotation
						JOINT Neck
						{
							OFFSET 0.016300 11.420799 -0.263300
							CHANNELS 3 Zrotation Yrotation Xrotation
							End Site #name: Head
							{
								OFFSET -0.019200 9.262405 2.362500
							}
						}
					}
					JOINT Spine2_LeftShoulder
					{
						OFFSET 0.000000 0.000000 0.000000
						CHANNELS 3 Zrotation Yrotation Xrotation
						JOINT LeftShoulder
						{
							OFFSET 5.616900 6.732201 -0.345700
							CHANNELS 3 Zrotation Yrotation Xrotation
							JOINT LeftArm
							{
								OFFSET 10.664888 -0.183372 -2.440700
								CHANNELS 3 Zrotation Yrotation Xrotation
								JOINT LeftForeArm
								{
									OFFSET 27.459126 0.000000 0.000000
									CHANNELS 3 Zrotation Yrotation Xrotation
									End Site #name: LeftHand
									{
										OFFSET 21.306858 0.000000 0.000000
									}
								}
							}
						}
					}
					JOINT Spine2_RightShoulder
					{
						OFFSET 0.000000 0.000000 0.000000
						CHANNELS 3 Zrotation Yrotation Xrotation
						JOINT RightShoulder
						{
							OFFSET -5.580300 6.737503 -0.344400
							CHANNELS 3 Zrotation Yrotation Xrotation
							JOINT RightArm
							{
								OFFSET -10.679335 -0.188484 -2.383900
								CHANNELS 3 Zrotation Yrotation Xrotation
								JOINT RightForeArm
								{
									OFFSET -27.503529 0.000000 0.000000
									CHANNELS 3 Zrotation Yrotation Xrotation
									End Site #name: RightHand
									{
										OFFSET -21.306808 0.000000 0.000000
									}
								}
							}
						}
					}
				}
			}
		}
	}
	JOINT Hips_LeftUpLeg
	{
		OFFSET 0.000000 0.000000 0.000000
		CHANNELS 3 Zrotation Yrotation Xrotation
		JOINT LeftUpLeg
		{
			OFFSET 6.857700 -6.739601 0.312100
			CHANNELS 3 Zrotation Yrotation Xrotation
			JOINT LeftLeg
			{
				OFFSET -0.367590 -34.731552 -4.572400
				CHANNELS 3 Zrotation Yrotation Xrotation
				End Site #name: LeftFoot
				{
					OFFSET 0.367590 -34.656704 -6.067400
				}
			}
		}
	}
	JOINT Hips_RightUpLeg
	{
		OFFSET 0.000000 0.000000 0.000000
		CHANNELS 3 Zrotation Yrotation Xrotation
		JOINT RightUpLeg
		{
			OFFSET -6.876100 -6.733299 0.301000
			CHANNELS 3 Zrotation Yrotation Xrotation
			JOINT RightLeg
			{
				OFFSET 0.347353 -34.795158 -4.515900
				CHANNELS 3 Zrotation Yrotation Xrotation
				End Site #name: RightFoot
				{
					OFFSET -0.347353 -34.589367 -6.070300
				}
			}
		}
	}
}
MOTION
Frames: 18
Frame Time: 0.041667
3.032841 0.831788 -4.776815 175.448499 -12.278422 -178.316138 0.000000 -0.000000 0.000000 -6.561874 -0.424049 4.002214 0.566403 -1.939493 -0.248543 0.000000 0.000000 0.000000 1.128610 -1.819823 0.355627 2.443718 -31.402699 -3.657929 0.047395 -1.536376 -1.166190 1.842171 -7.700717 1.001619 -86.815032 -22.428418 12.096881 2.528219 -16.000329 -0.706559 0.480095 -2.408368 -0.503558 15.370025 14.295732 4.817672 55.875339 8.196457 11.613401 -2.184672 51.750131 1.951291 0.000000 0.000000 -0.000000 -3.248818 15.557737 -4.690398 0.096834 -38.001913 -15.105147 0.000000 0.000000 -0.000000 -4.500423 -53.636120 -10.159963 -11.031126 -5.170720 21.245190 
3.102040 0.896894 -4.904277 175.346136 -11.134997 -178.316209 0.000000 -0.000000 0.000000 -6.923330 -0.351096 4.180163 0.559838 -1.829707 -0.329141 0.000000 0.000000 0.000000 1.101697 -1.770984 0.249448 2.207762 -30.219738 -4.215708 0.043149 -1.470562 -1.196664 1.928493 -8.042358 1.047947 -86.675743 -22.575976 12.284797 2.465003 -16.823307 -0.805758 0.489137 -2.329900 -0.580714 15.072944 14.245956 4.845428 55.860954 8.121173 11.865858 -2.402745 51.208401 1.747410 0.000000 0.000000 -0.000000 -3.310921 15.184213 -5.253604 -0.121404 -37.750053 -14.453152 0.000000 0.000000 -0.000000 -4.293446 -52.668601 -10.123074 -10.528274 -4.166391 20.794639 
3.172988 0.962089 -5.027528 175.200807 -10.097935 -178.300802 -0.000000 -0.000000 0.000000 -7.267360 -0.242694 4.366499 0.545857 -1.691686 -0.401709 0.000000 0.000000 0.000000 1.067068 -1.710245 0.138574 2.000635 -28.942373 -4.886188 0.040166 -1.388569 -1.220004 2.017831 -8.337209 1.081635 -86.452883 -22.719264 12.439628 2.414716 -17.932886 -0.906319 0.497209 -2.234842 -0.652952 14.756734 14.229055 4.883035 55.862031 8.061622 12.151163 -2.612319 50.692314 1.557266 0.000000 0.000000 -0.000000 -3.375070 14.820558 -5.777492 -0.336637 -37.517321 -13.821679 0.000000 0.000000 -0.000000 -4.142158 -51.886701 -9.985270 -10.030542 -3.105267 20.337701 
3.246295 1.026154 -5.147991 174.988586 -9.278361 -178.270116 -0.000000 -0.000000 0.000000 -7.607651 -0.121880 4.582730 0.514003 -1.576595 -0.502788 0.000000 0.000000 0.000000 1.028408 -1.635042 0.035371 1.783448 -27.654523 -5.668397 0.033636 -1.293381 -1.247649 2.098675 -8.590943 1.111044 -86.149869 -22.855109 12.625324 2.395835 -19.370074 -1.010193 0.496359 -2.126426 -0.721752 14.412986 14.267689 4.920027 55.872177 8.007888 12.443737 -2.717508 50.211228 1.492099 0.000000 0.000000 -0.000000 -3.456186 14.454173 -6.316957 -0.573810 -37.290753 -13.152264 0.000000 0.000000 -0.000000 -4.073721 -51.494351 -9.732316 -9.503207 -2.003622 19.845629 
3.322453 1.087294 -5.267513 174.736842 -8.700109 -178.219839 -0.000000 -0.000000 0.000000 -7.948631 0.002227 4.860368 0.466219 -1.472487 -0.583429 0.000000 0.000000 0.000000 0.993655 -1.564244 -0.073693 1.509989 -26.359554 -6.638616 0.023575 -1.190717 -1.278331 2.175723 -8.805773 1.138372 -85.797582 -22.986419 12.773939 2.416098 -21.064747 -1.120914 0.484684 -2.012551 -0.786053 14.068170 14.380568 4.953884 55.881782 7.964379 12.712785 -2.815790 49.857889 1.431704 0.000000 0.000000 -0.000000 -3.539236 14.057051 -6.843644 -0.826645 -37.091597 -12.471749 0.000000 0.000000 -0.000000 -4.186533 -51.620434 -9.338350 -8.983537 -1.034433 19.308014 
3.404446 1.144726 -5.385851 174.466614 -8.440707 -178.153720 -0.000000 -0.000000 0.000000 -8.300939 0.121590 5.202467 0.405884 -1.375234 -0.636096 0.000000 0.000000 0.000000 0.957738 -1.499731 -0.178648 1.490067 -24.880466 -7.846907 0.008218 -1.084177 -1.294711 2.241667 -8.974800 1.152543 -85.446314 -23.111202 12.901618 2.484535 -22.967087 -1.226566 0.470061 -1.899533 -0.840240 13.728143 14.557089 4.998467 55.888831 7.926857 12.919545 -2.901521 49.653314 1.373133 0.000000 0.000000 -0.000000 -3.623950 13.652476 -7.327065 -1.101767 -36.976596 -11.774213 0.000000 -0.000000 -0.000000 -4.424648 -52.115967 -8.940216 -8.306313 -0.085466 18.889672 
3.494796 1.197405 -5.502184 174.168230 -8.556034 -178.062748 -0.000000 -0.000000 0.000000 -8.667606 0.254211 5.525288 0.340460 -1.283367 -0.667679 0.000000 0.000000 0.000000 0.926093 -1.440327 -0.262587 1.372534 -23.403945 -8.894217 -0.009533 -0.983247 -1.293857 2.287089 -9.118436 1.167612 -85.102205 -23.216280 13.035777 2.617876 -24.997360 -1.325179 0.456733 -1.794056 -0.885309 13.394755 14.789595 5.057402 55.893688 7.917371 13.041510 -2.981507 49.654653 1.318788 0.000000 0.000000 -0.000000 -3.738104 13.234390 -7.800490 -1.411529 -36.951184 -11.019186 0.000000 -0.000000 -0.000000 -4.763188 -53.022640 -8.480459 -7.424059 0.967427 18.537770 
3.593498 1.244548 -5.616565 173.822425 -8.992375 -177.946408 -0.000000 -0.000000 0.000000 -9.009468 0.338375 5.858402 0.283635 -1.214000 -0.661712 0.000000 0.000000 0.000000 0.905652 -1.407272 -0.291623 1.285094 -21.749259 -10.122106 -0.030216 -0.902711 -1.267129 2.322571 -9.253726 1.186899 -84.772487 -23.319687 13.154530 2.804988 -27.085423 -1.425427 0.452611 -1.708831 -0.901294 13.065704 15.077134 5.135188 55.894465 7.955294 13.016584 -3.044575 49.864821 1.269887 0.000000 0.000000 -0.000000 -3.903547 12.819297 -8.310706 -1.804751 -36.980797 -10.172019 0.000000 -0.000000 -0.000000 -5.122206 -54.280597 -8.017435 -6.424333 2.122636 18.327012 
3.699326 1.289394 -5.730453 173.488567 -9.533220 -177.808942 -0.000000 -0.000000 0.000000 -9.363934 0.359858 6.122066 0.230823 -1.185824 -0.590112 0.000000 0.000000 0.000000 0.896424 -1.391723 -0.272340 1.179561 -19.938550 -11.381822 -0.053449 -0.882129 -1.208925 2.356078 -9.399738 1.212097 -84.450855 -23.407612 13.268170 3.057001 -29.788949 -1.540551 0.460580 -1.637016 -0.885687 12.743105 15.451762 5.245632 55.898914 8.051902 12.899041 -3.097448 50.361231 1.219132 0.000000 0.000000 -0.000000 -4.089719 12.477231 -8.823781 -2.232032 -37.092327 -9.259992 0.000000 -0.000000 -0.000000 -5.517581 -55.769646 -7.514779 -5.303884 3.388942 18.231288 
3.810722 1.333408 -5.843567 173.222237 -10.183730 -177.656857 -0.000000 -0.000000 0.000000 -9.765910 0.320360 6.371556 0.169805 -1.176785 -0.487005 0.000000 0.000000 0.000000 0.877848 -1.394485 -0.231216 0.999438 -18.038200 -12.517414 -0.074241 -0.873729 -1.131364 2.399244 -9.549300 1.237553 -84.115947 -23.532025 13.328514 3.373358 -33.055599 -1.697374 0.465540 -1.589470 -0.864945 12.432138 15.933210 5.365991 55.906428 8.236139 12.735370 -3.149164 51.128047 1.163351 0.000000 0.000000 -0.000000 -4.284267 12.234228 -9.312080 -2.725139 -37.297794 -8.222345 0.000000 -0.000000 -0.000000 -5.844593 -57.070810 -7.049895 -5.159323 4.098731 18.210350 
3.928901 1.379115 -5.955952 172.984325 -10.717441 -177.521696 -0.000000 -0.000000 0.000000 -10.120754 0.355491 6.532759 0.092462 -1.176673 -0.390587 0.000000 0.000000 0.000000 0.843377 -1.409964 -0.205994 0.805555 -16.138108 -13.579216 -0.109951 -0.871677 -1.053056 2.437365 -9.680115 1.267164 -83.772479 -23.687702 13.354246 3.713302 -36.003226 -1.850183 0.446574 -1.558062 -0.849702 12.156165 16.518954 5.479612 55.933715 8.451115 12.600715 -3.204544 52.138302 1.098776 0.000000 0.000000 -0.000000 -4.463520 12.079572 -9.721737 -3.300055 -37.626729 -7.087678 0.000000 -0.000000 -0.000000 -6.059763 -58.136965 -6.695190 -5.392910 4.483365 18.274778 
4.056890 1.427332 -6.067718 172.804717 -10.953651 -177.420800 -0.000000 -0.000000 0.000000 -10.421060 0.421579 6.629942 -0.011400 -1.182471 -0.315477 0.000000 0.000000 0.000000 0.783010 -1.424006 -0.200629 0.700492 -14.335012 -14.467026 -0.167108 -0.872573 -1.000779 2.460376 -9.762962 1.289949 -83.418447 -23.840265 13.347897 4.043561 -38.564224 -2.007969 0.390700 -1.535278 -0.863617 11.929922 17.197984 5.558380 55.942052 8.683213 12.438591 -3.282685 53.275421 1.020417 0.000000 0.000000 -0.000000 -4.607727 12.024969 -10.014719 -3.973861 -38.058755 -5.901395 0.000000 -0.000000 -0.000000 -6.188901 -58.935684 -6.461761 -5.637305 4.756274 18.377228 
4.199708 1.481912 -6.179041 172.642714 -10.923711 -177.361411 -0.000000 -0.000000 0.000000 -10.678041 0.451924 6.689282 -0.140310 -1.200369 -0.253907 0.000000 0.000000 0.000000 0.707480 -1.440969 -0.218086 0.576878 -12.667639 -15.205925 -0.236914 -0.878681 -0.978359 2.467162 -9.788700 1.304698 -83.048094 -23.978935 13.349071 4.377233 -40.776570 -2.158069 0.308827 -1.519285 -0.906873 11.759447 17.871254 5.564143 55.949299 8.892058 12.310194 -3.383730 54.517615 0.919861 0.000000 0.000000 -0.000000 -4.724311 12.068774 -10.206354 -4.679915 -38.650498 -4.827251 0.000000 -0.000000 -0.000000 -6.232886 -59.492729 -6.387347 -5.875517 4.932849 18.482936 
4.360710 1.570056 -6.289981 172.416563 -10.644859 -177.349318 -0.000000 -0.000000 0.000000 -10.857547 0.426072 6.669942 -0.286485 -1.226687 -0.199386 0.000000 0.000000 0.000000 0.586477 -1.458251 -0.248895 0.446380 -10.550554 -16.173526 -0.311700 -0.887544 -0.981660 2.452234 -9.748028 1.308416 -82.658693 -24.104550 13.343733 4.707548 -42.675928 -2.289151 0.211703 -1.512230 -0.954321 11.604341 18.440115 5.519089 55.977474 9.013042 12.245302 -3.545846 56.084592 0.757538 0.000000 0.000000 -0.000000 -4.818284 12.214132 -10.223356 -5.297997 -39.301507 -3.961934 0.000000 -0.000000 -0.000000 -6.032268 -59.708347 -6.705986 -6.126368 5.032314 18.536837 
4.537234 1.697359 -6.403039 172.182645 -10.225397 -177.394857 -0.000000 -0.000000 0.000000 -10.998523 0.340917 6.667962 -0.428210 -1.266752 -0.136225 0.000000 0.000000 0.000000 0.448145 -1.480336 -0.249141 0.230731 -8.699681 -16.866636 -0.387725 -0.903903 -0.980951 2.435691 -9.670322 1.303072 -82.238482 -24.212751 13.338893 5.023232 -44.269518 -2.418838 0.103616 -1.526640 -1.002003 11.525958 18.896415 5.385941 56.058854 9.061166 12.287934 -3.803387 58.024842 0.509671 0.000000 0.000000 -0.000000 -4.917744 12.512796 -10.168761 -5.840061 -40.018517 -3.238754 0.000000 0.000000 -0.000000 -5.448803 -59.384805 -7.479759 -6.334779 5.088591 18.537576 
4.725272 1.860167 -6.521100 171.952556 -9.584904 -177.510898 -0.000000 -0.000000 0.000000 -11.151361 0.214156 6.804703 -0.584465 -1.331503 -0.043393 0.000000 0.000000 0.000000 0.297835 -1.511246 -0.208231 -0.015698 -7.197034 -17.236245 -0.468612 -0.933634 -0.966895 2.442107 -9.576863 1.289131 -81.796649 -24.316820 13.316358 5.328500 -45.634461 -2.538424 -0.023194 -1.572624 -1.034347 11.498154 19.305194 5.172021 56.224449 9.187223 12.392365 -4.114090 60.281029 0.198636 0.000000 0.000000 -0.000000 -4.966772 12.861263 -10.013264 -6.420653 -40.678985 -2.681664 -0.000000 0.000000 -0.000000 -4.474585 -58.522252 -8.619134 -6.401156 5.075998 18.588094 
4.923058 2.058646 -6.644857 171.779371 -8.920178 -177.669906 -0.000000 -0.000000 0.000000 -11.272739 0.041566 6.985991 -0.755619 -1.420098 0.089012 0.000000 0.000000 0.000000 0.130693 -1.546176 -0.121313 -0.203172 -6.110951 -17.343278 -0.556882 -0.979197 -0.944309 2.468165 -9.455978 1.265207 -81.307773 -24.421206 13.291568 5.598321 -46.801608 -2.653847 -0.175883 -1.651308 -1.060097 11.532644 19.679710 4.836146 56.448820 9.488040 12.418442 -4.460043 62.636089 -0.163137 0.000000 0.000000 -0.000000 -4.948684 13.229187 -9.721352 -6.794250 -41.053057 -2.397453 -0.000000 0.000000 -0.000000 -3.291823 -56.757198 -10.098617 -6.369553 4.966415 18.867621 
5.134469 2.291454 -6.779078 171.683557 -8.325117 -177.859680 -0.000000 -0.000000 0.000000 -11.339852 -0.166854 7.217302 -0.946054 -1.526441 0.223655 0.000000 0.000000 0.000000 -0.064524 -1.588948 -0.001325 -0.341535 -5.540543 -17.256835 -0.657816 -1.037171 -0.913986 2.496455 -9.309227 1.242195 -80.742517 -24.543983 13.272583 5.833073 -47.865167 -2.789371 -0.356079 -1.763858 -1.071886 11.615640 20.067207 4.356987 56.732753 9.989315 12.360070 -4.800149 64.870820 -0.537159 0.000000 0.000000 -0.000000 -4.852441 13.625113 -9.212215 -6.961543 -41.300079 -2.417330 -0.000000 0.000000 -0.000000 -2.454308 -54.206591 -11.571615 -6.281845 4.784782 19.400526 
